<?xml version="1.0" standalone="no"?>
<!DOCTYPE svg PUBLIC "-//W3C//DTD SVG 20010904//EN"
 "http://www.w3.org/TR/2001/REC-SVG-20010904/DTD/svg10.dtd">
<svg version="1.0" xmlns="http://www.w3.org/2000/svg"
 width="200.000000pt" height="200.000000pt" viewBox="0 0 200.000000 200.000000"
 preserveAspectRatio="xMidYMid meet">
<metadata>
Created by potrace 1.14, written by Peter Selinger 2001-2017
</metadata>
<g transform="translate(0.000000,200.000000) scale(0.100000,-0.100000)"
fill="#000000" stroke="none">
<path d="M591 1640 c-66 -14 -129 -56 -162 -108 -37 -59 -49 -101 -49 -179 l0
-63 -26 10 c-32 13 -115 13 -147 1 -39 -15 -96 -70 -119 -114 -29 -57 -22
-149 15 -206 l27 -41 0 -232 c0 -211 2 -236 19 -264 40 -65 147 -100 225 -74
48 16 96 56 112 97 l14 33 500 0 500 0 14 -33 c53 -128 262 -142 335 -23 20
31 21 49 21 266 0 209 2 235 18 258 79 113 42 260 -80 323 -40 20 -120 25
-161 10 l-25 -10 -4 82 c-7 124 -58 205 -158 251 -43 20 -63 21 -435 23 -214
1 -410 -3 -434 -7z m828 -144 c61 -32 66 -50 69 -283 l3 -212 -33 12 c-47 17
-869 17 -915 0 l-33 -12 0 200 c0 224 7 255 62 289 32 19 49 20 426 20 324 0
398 -3 421 -14z m-1085 -337 l26 -20 0 -315 0 -314 -25 -12 c-19 -8 -31 -8
-50 0 l-25 12 0 249 0 249 -30 30 c-77 78 18 189 104 121z m1421 15 c19 -8 45
-55 45 -84 0 -12 -13 -35 -30 -52 l-30 -30 0 -249 0 -249 -26 -12 c-21 -10
-31 -9 -52 3 l-27 15 0 308 0 308 28 24 c28 24 60 30 92 18z m-299 -318 c34
-34 34 -34 34 -130 l0 -96 -490 0 -490 0 0 96 c0 96 0 96 34 130 l34 34 422 0
422 0 34 -34z"/>
</g>
</svg>
